<svg viewBox="0 0 55 54" width="100" height="100" xmlns="http://www.w3.org/2000/svg" fill-rule="evenodd" clip-rule="evenodd" stroke-linejoin="round" stroke-miterlimit="1.414"><path fill="none" d="M0 0h54.047v53.64H0z"/><clipPath id="a"><path d="M0 0h54.047v53.64H0z"/></clipPath><g clip-path="url(#a)"><path d="M54.047 2.682A2.683 2.683 0 0 0 51.365 0H2.682A2.684 2.684 0 0 0 0 2.682v48.276a2.683 2.683 0 0 0 2.682 2.682h48.683a2.682 2.682 0 0 0 2.682-2.682V2.682z" fill="#00c1ce"/><path d="M17.078 27.961h7.678c-.002 2.579-.001 17.659-.001 17.659s-.217 1.089-1.15 1.141h-5.377a1.2 1.2 0 0 1-1.15-1.141V27.961zm17.139 6.128l6.12 10.976s.239.525.069.965c-.166.429-.603.706-1.073.731h-6.072c-.632-.034-.715-.101-1.021-.616l-4.712-9.028a26.294 26.294 0 0 0 6.689-3.028zM27.41 7.356c4.189 1.02 7.953 3.102 9.958 7.003 2.351 4.861 1.626 9.854-.43 13.218-2.414 3.951-6.64 5.925-9.525 6.809.001-2.513.004-5.025.006-7.538 1.539-.828 2.769-2.139 3.249-3.865.9-3.238-.339-6.937-3.245-8.537-.002-2.362-.006-4.726-.013-7.09zM17.078 25.32V7.687c.056-1.014 1.344-1.169 2.815-1.167 1.598.007 3.237.105 4.851.331.007 2.244.011 18.469.011 18.469h-7.677z" fill="#fff"/></g></svg>
